#define wbe_width 33
#define wbe_height 38
static unsigned char wbe_bits[] = {
   0x00, 0x00, 0x00, 0x00, 0x00, 0x00, 0x00, 0x00, 0x00, 0x00, 0x00, 0x00,
   0x00, 0x00, 0x00, 0x00, 0x00, 0x00, 0x00, 0x00, 0x00, 0x00, 0x00, 0x00,
   0x00, 0x00, 0x00, 0x00, 0x00, 0x00, 0x00, 0x00, 0x00, 0x00, 0x00, 0x00,
   0x00, 0x00, 0x00, 0x00, 0x00, 0x00, 0x00, 0x00, 0x00, 0x1c, 0xc0, 0x03,
   0x38, 0x00, 0x1c, 0xc0, 0x03, 0x38, 0x00, 0x1c, 0xc0, 0x03, 0x38, 0x00,
   0x1c, 0xc0, 0x03, 0x1c, 0x00, 0x38, 0x60, 0x07, 0x1c, 0x00, 0x38, 0x60,
   0x07, 0x1c, 0x00, 0x38, 0x60, 0x07, 0x1c, 0x00, 0x38, 0x60, 0x06, 0x0e,
   0x00, 0x70, 0x70, 0x0e, 0x0e, 0x00, 0x70, 0x30, 0x06, 0x0e, 0x00, 0x70,
   0x30, 0x0e, 0x0e, 0x00, 0x70, 0x30, 0x0c, 0x07, 0x00, 0xe0, 0x38, 0x0c,
   0x06, 0x00, 0xe0, 0x38, 0x1c, 0x07, 0x00, 0xe0, 0x18, 0x1c, 0x03, 0x00,
   0xe0, 0x18, 0x98, 0x03, 0x00, 0xc0, 0x1d, 0x98, 0x03, 0x00, 0xc0, 0x1d,
   0xb8, 0x03, 0x00, 0xc0, 0x0d, 0xb8, 0x01, 0x00, 0xc0, 0x0f, 0xf0, 0x01,
   0x00, 0x80, 0x0f, 0xf0, 0x01, 0x00, 0x80, 0x0f, 0xf0, 0x01, 0x00, 0x80,
   0x07, 0xf0, 0x00, 0x00, 0x80, 0x07, 0xe0, 0x00, 0x00, 0x00, 0x00, 0x00,
   0x00, 0x00, 0x00, 0x00, 0x00, 0x00, 0x00, 0x00, 0x00, 0x00, 0x00, 0x00,
   0x00, 0x00, 0x00, 0x00, 0x00, 0x00, 0x00, 0x00, 0x00, 0x00 };
